<svg width="49" height="48" viewBox="0 0 49 48" fill="none" xmlns="http://www.w3.org/2000/svg">
<path fill-rule="evenodd" clip-rule="evenodd" d="M25.25 6.00004C35.8438 3.35179 42.8165 19.749 41.75 27.75C40.25 39 31.8215 42 23.75 42C15.6785 42 6.50003 37.3215 6.50003 29.25C6.50003 24.3323 10.8275 19.212 15.5 14.25C18.4963 11.0678 20.5618 7.17229 25.25 6.00004Z" fill="#F6DDA9"/>
<path fill-rule="evenodd" clip-rule="evenodd" d="M33.0448 36.6893C34.5395 36.0503 36.095 34.6006 37.2403 32.8088C38.3818 31.0223 39.1115 28.9051 39.0208 26.9648C39.0013 26.5516 38.6503 26.2313 38.2363 26.2508C37.823 26.2703 37.5028 26.6213 37.5223 27.0353C37.5995 28.6868 36.9478 30.4801 35.9765 32.0011C35.0083 33.5161 33.719 34.7701 32.4553 35.3108C32.0743 35.4736 31.898 35.9146 32.0608 36.2948C32.2235 36.6758 32.6645 36.8521 33.0448 36.6893Z" fill="#FAEACB"/>
<path d="M23.375 33.75C26.8958 33.75 29.75 30.8958 29.75 27.375C29.75 23.8542 26.8958 21 23.375 21C19.8542 21 17 23.8542 17 27.375C17 30.8958 19.8542 33.75 23.375 33.75Z" fill="#FFB138"/>
<path fill-rule="evenodd" clip-rule="evenodd" d="M20.7553 27.6788C20.7103 27.2265 20.9165 26.679 21.254 26.1788C21.7865 25.3898 22.6768 24.7043 23.7253 24.7523C24.1385 24.771 24.4895 24.4508 24.5083 24.0375C24.527 23.6235 24.2068 23.2725 23.7935 23.2538C22.2065 23.1818 20.8168 24.1448 20.0113 25.3395C19.4563 26.1615 19.1885 27.084 19.2628 27.8273C19.304 28.239 19.6715 28.5405 20.0833 28.4993C20.495 28.4588 20.7965 28.0905 20.7553 27.6788Z" fill="#F6DDA9"/>
</svg>
