<svg width="49" height="48" viewBox="0 0 49 48" fill="none" xmlns="http://www.w3.org/2000/svg">
<path fill-rule="evenodd" clip-rule="evenodd" d="M24.3333 4.5C35.0958 4.5 43.8333 13.2375 43.8333 24C43.8333 34.7625 35.0958 43.5 24.3333 43.5C13.5708 43.5 4.83334 34.7625 4.83334 24C4.83334 13.2375 13.5708 4.5 24.3333 4.5ZM24.3333 18C27.6446 18 30.3333 20.6887 30.3333 24C30.3333 27.3113 27.6446 30 24.3333 30C21.0221 30 18.3333 27.3113 18.3333 24C18.3333 20.6887 21.0221 18 24.3333 18Z" fill="#FFB138"/>
<path fill-rule="evenodd" clip-rule="evenodd" d="M24.3333 40.5001C21.7076 40.6134 17.5833 42.7501 13.8333 40.5001C9.1106 37.6666 10.5686 33.2176 9.33335 29.2501C8.0981 25.2826 4.08335 19.5001 7.08335 15.0001C10.0833 10.5001 12.9258 10.7176 18.3333 9.00011C23.7408 7.28261 25.6758 3.43136 30.3333 5.25011C34.9908 7.06886 34.6758 12.6459 37.0833 15.7501C39.4908 18.8544 44.1041 19.2886 43.8333 24.7501C43.5626 30.2116 39.3896 30.1104 38.5833 32.2501C37.7771 34.3899 37.3541 38.8959 34.0833 40.5001C30.8126 42.1044 26.7468 40.3959 24.3333 40.5001ZM24.3333 18.0001C27.6446 18.0001 30.3333 20.6889 30.3333 24.0001C30.3333 27.3114 27.6446 30.0001 24.3333 30.0001C21.0221 30.0001 18.3333 27.3114 18.3333 24.0001C18.3333 20.6889 21.0221 18.0001 24.3333 18.0001Z" fill="#B16930"/>
<path fill-rule="evenodd" clip-rule="evenodd" d="M27.1324 9.48446L28.7239 11.076C29.0164 11.3685 29.4919 11.3685 29.7844 11.076C30.0769 10.7835 30.0769 10.308 29.7844 10.0155L28.1929 8.42396C27.9004 8.13146 27.4249 8.13146 27.1324 8.42396C26.8399 8.71646 26.8399 9.19196 27.1324 9.48446Z" fill="#F6DDA9"/>
<path fill-rule="evenodd" clip-rule="evenodd" d="M22.6324 34.9845L24.2239 36.576C24.5164 36.8685 24.9919 36.8685 25.2844 36.576C25.5769 36.2835 25.5769 35.808 25.2844 35.5155L23.6929 33.924C23.4004 33.6315 22.9249 33.6315 22.6324 33.924C22.3399 34.2165 22.3399 34.692 22.6324 34.9845Z" fill="#F6DDA9"/>
<path fill-rule="evenodd" clip-rule="evenodd" d="M35.3824 22.9845L36.9739 24.576C37.2664 24.8685 37.7419 24.8685 38.0344 24.576C38.3269 24.2835 38.3269 23.808 38.0344 23.5155L36.4429 21.924C36.1504 21.6315 35.6749 21.6315 35.3824 21.924C35.0899 22.2165 35.0899 22.692 35.3824 22.9845Z" fill="#F6DDA9"/>
<path fill-rule="evenodd" clip-rule="evenodd" d="M12.8824 34.2345L14.4739 35.826C14.7664 36.1185 15.2419 36.1185 15.5344 35.826C15.8269 35.5335 15.8269 35.058 15.5344 34.7655L13.9429 33.174C13.6504 32.8815 13.1749 32.8815 12.8824 33.174C12.5899 33.4665 12.5899 33.942 12.8824 34.2345Z" fill="#F6DDA9"/>
<path fill-rule="evenodd" clip-rule="evenodd" d="M12.8824 16.2345L14.4739 17.826C14.7664 18.1185 15.2419 18.1185 15.5344 17.826C15.8269 17.5335 15.8269 17.058 15.5344 16.7655L13.9429 15.174C13.6504 14.8815 13.1749 14.8815 12.8824 15.174C12.5899 15.4665 12.5899 15.942 12.8824 16.2345Z" fill="#F6DDA9"/>
<path fill-rule="evenodd" clip-rule="evenodd" d="M35.1439 31.7199L33.5531 33.3106C33.2606 33.6031 33.2606 34.0786 33.5531 34.3711C33.8456 34.6644 34.3211 34.6644 34.6136 34.3711L36.2043 32.7804C36.4976 32.4879 36.4976 32.0124 36.2043 31.7199C35.9118 31.4274 35.4364 31.4274 35.1439 31.7199Z" fill="#F6DDA9"/>
<path fill-rule="evenodd" clip-rule="evenodd" d="M32.1439 15.2199L30.5531 16.8106C30.2606 17.1031 30.2606 17.5786 30.5531 17.8711C30.8456 18.1644 31.3211 18.1644 31.6136 17.8711L33.2043 16.2804C33.4976 15.9879 33.4976 15.5124 33.2043 15.2199C32.9118 14.9274 32.4364 14.9274 32.1439 15.2199Z" fill="#F6DDA9"/>
<path fill-rule="evenodd" clip-rule="evenodd" d="M13.3938 22.7199L11.8031 24.3106C11.5106 24.6031 11.5106 25.0786 11.8031 25.3711C12.0956 25.6644 12.5711 25.6644 12.8636 25.3711L14.4543 23.7804C14.7476 23.4879 14.7476 23.0124 14.4543 22.7199C14.1618 22.4274 13.6863 22.4274 13.3938 22.7199Z" fill="#F6DDA9"/>
<path fill-rule="evenodd" clip-rule="evenodd" d="M21.6439 12.2199L20.0531 13.8106C19.7606 14.1031 19.7606 14.5786 20.0531 14.8711C20.3456 15.1644 20.8211 15.1644 21.1136 14.8711L22.7043 13.2804C22.9976 12.9879 22.9976 12.5124 22.7043 12.2199C22.4118 11.9274 21.9364 11.9274 21.6439 12.2199Z" fill="#F6DDA9"/>
</svg>
