<svg width="49" height="48" viewBox="0 0 49 48" fill="none" xmlns="http://www.w3.org/2000/svg">
<path d="M24.6667 39.75C33.3651 39.75 40.4167 32.6985 40.4167 24C40.4167 15.3015 33.3651 8.25 24.6667 8.25C15.9682 8.25 8.91666 15.3015 8.91666 24C8.91666 32.6985 15.9682 39.75 24.6667 39.75Z" fill="#FFB138"/>
<path fill-rule="evenodd" clip-rule="evenodd" d="M39.5197 26.2646C35.4329 27.0821 32.1067 31.1344 32.9242 36.8561C32.9827 37.2664 33.3629 37.5514 33.7724 37.4929C34.1827 37.4344 34.4677 37.0541 34.4092 36.6446C33.7267 31.8656 36.4004 28.4186 39.8137 27.7361C40.2194 27.6544 40.4834 27.2591 40.4024 26.8534C40.3207 26.4476 39.9254 26.1836 39.5197 26.2646Z" fill="#F48132"/>
<path fill-rule="evenodd" clip-rule="evenodd" d="M40.4099 22.5C36.7582 22.5338 26.9167 26.3775 26.9167 39C26.9167 39.414 27.2527 39.75 27.6667 39.75C28.0807 39.75 28.4167 39.414 28.4167 39C28.4167 27.6218 37.1324 24.0308 40.4234 24C40.8374 23.9963 41.1704 23.6573 41.1667 23.2433C41.1629 22.8293 40.8239 22.4963 40.4099 22.5Z" fill="#F48132"/>
<path fill-rule="evenodd" clip-rule="evenodd" d="M39.7199 19.5026C35.3219 19.1884 22.4489 23.3351 21.6674 38.9629C21.6472 39.3761 21.9659 39.7286 22.3792 39.7496C22.7924 39.7699 23.1449 39.4511 23.1659 39.0379C23.8844 24.6656 35.5687 20.7101 39.6134 20.9981C40.0259 21.0281 40.3852 20.7169 40.4144 20.3036C40.4444 19.8911 40.1332 19.5319 39.7199 19.5026Z" fill="#F48132"/>
<path fill-rule="evenodd" clip-rule="evenodd" d="M18.5377 37.921C19.7887 36.0738 22.4452 35.9995 22.4452 35.9995C22.8584 35.9838 23.1817 35.6358 23.1659 35.2218C23.1502 34.8085 22.8022 34.4853 22.3882 34.501C22.3882 34.501 18.9352 34.6578 17.2957 37.0795C17.0639 37.4223 17.1532 37.8895 17.4959 38.1213C17.8387 38.353 18.3059 38.2638 18.5377 37.921Z" fill="#F48132"/>
<path fill-rule="evenodd" clip-rule="evenodd" d="M14.7397 35.7348C16.5269 33.6206 19.9979 32.3418 23.0107 32.9838C23.4149 33.0701 23.8139 32.8113 23.9002 32.4063C23.9864 32.0021 23.7277 31.6031 23.3227 31.5168C19.7782 30.7608 15.6974 32.2781 13.5937 34.7658C13.3267 35.0823 13.3664 35.5556 13.6822 35.8233C13.9987 36.0903 14.4719 36.0506 14.7397 35.7348Z" fill="#F48132"/>
<path fill-rule="evenodd" clip-rule="evenodd" d="M11.7517 31.9697C12.3989 31.1619 13.7279 30.3647 15.3839 29.8029C17.9609 28.9284 21.3367 28.6479 24.3727 29.9402C24.7537 30.1022 25.1947 29.9244 25.3567 29.5442C25.5187 29.1632 25.3409 28.7222 24.9607 28.5602C21.5624 27.1142 17.7854 27.4037 14.9017 28.3824C12.9172 29.0559 11.3572 30.0639 10.5817 31.0307C10.3229 31.3539 10.3747 31.8264 10.6972 32.0852C11.0204 32.3439 11.4929 32.2922 11.7517 31.9697Z" fill="#F48132"/>
<path fill-rule="evenodd" clip-rule="evenodd" d="M12.9494 14.0869C13.9912 14.9179 14.6504 16.7546 15.0607 18.8456C15.7109 22.1576 15.6592 26.1319 14.9542 28.2649C14.8244 28.6586 15.0382 29.0831 15.4312 29.2129C15.8249 29.3426 16.2494 29.1289 16.3792 28.7359C17.1404 26.4304 17.2357 22.1359 16.5329 18.5569C16.0409 16.0534 15.1319 13.9091 13.8839 12.9139C13.5607 12.6559 13.0882 12.7091 12.8302 13.0331C12.5722 13.3564 12.6254 13.8289 12.9494 14.0869Z" fill="#F48132"/>
<path fill-rule="evenodd" clip-rule="evenodd" d="M9.97641 17.8568C10.7204 18.3968 11.2454 19.7745 11.5942 21.4628C12.1634 24.2168 12.1499 27.8033 11.2087 30.5033C11.0722 30.894 11.2792 31.3223 11.6699 31.458C12.0607 31.5945 12.4889 31.3875 12.6247 30.9968C13.8217 27.564 13.6604 22.818 12.6974 19.7303C12.2422 18.2715 11.5859 17.172 10.8569 16.6433C10.5224 16.3995 10.0529 16.4745 9.80991 16.8098C9.56616 17.1443 9.64116 17.6138 9.97641 17.8568Z" fill="#F48132"/>
<path fill-rule="evenodd" clip-rule="evenodd" d="M21.6562 27.8734C22.3274 23.8481 27.0337 21.8546 30.3884 23.1964C30.7724 23.3501 31.2097 23.1634 31.3627 22.7786C31.5164 22.3946 31.3297 21.9574 30.9449 21.8044C26.7997 20.1461 21.0059 22.6526 20.1772 27.6274C20.1089 28.0354 20.3849 28.4224 20.7937 28.4899C21.2017 28.5581 21.5887 28.2821 21.6562 27.8734Z" fill="#F48132"/>
<path fill-rule="evenodd" clip-rule="evenodd" d="M17.1562 24.873C17.3587 23.658 18.2549 22.2765 19.5757 21.0975C22.7744 18.2415 28.5149 16.6485 33.9119 21.555C34.2187 21.8333 34.6934 21.8108 34.9717 21.5048C35.2499 21.198 35.2274 20.7233 34.9214 20.445C28.7684 14.8515 22.2239 16.7235 18.5767 19.9785C16.9634 21.4185 15.9247 23.142 15.6772 24.627C15.6089 25.035 15.8849 25.422 16.2937 25.4895C16.7017 25.5578 17.0887 25.2818 17.1562 24.873Z" fill="#F48132"/>
<path fill-rule="evenodd" clip-rule="evenodd" d="M23.1839 8.08972C22.9994 8.93197 22.0462 9.64372 20.9039 10.2265C19.0237 11.1857 16.5389 11.7227 15.1409 11.2847C14.7464 11.161 14.3249 11.3807 14.2012 11.776C14.0774 12.1705 14.2972 12.592 14.6924 12.7157C16.3597 13.2385 19.3424 12.7067 21.5857 11.563C23.1929 10.7432 24.3899 9.59497 24.6494 8.41072C24.7379 8.00647 24.4814 7.60597 24.0772 7.51747C23.6729 7.42897 23.2724 7.68547 23.1839 8.08972Z" fill="#F48132"/>
<path fill-rule="evenodd" clip-rule="evenodd" d="M26.2147 10.9867C25.3927 13.176 21.3134 16.4497 15.7597 15.756C15.3487 15.7042 14.9737 15.996 14.9227 16.407C14.8709 16.818 15.1627 17.193 15.5737 17.244C22.0207 18.0502 26.6647 14.055 27.6187 11.5132C27.7642 11.1262 27.5677 10.6935 27.1799 10.548C26.7929 10.4025 26.3602 10.599 26.2147 10.9867Z" fill="#F48132"/>
<path fill-rule="evenodd" clip-rule="evenodd" d="M26.1749 8.88915C25.8179 11.2682 26.4794 14.0627 27.7559 16.2122C28.6364 17.6957 29.8102 18.8687 31.1174 19.4379C31.4969 19.6029 31.9394 19.4289 32.1044 19.0494C32.2694 18.6699 32.0954 18.2274 31.7159 18.0624C30.6674 17.6057 29.7524 16.6374 29.0452 15.4464C27.9404 13.5857 27.3494 11.1707 27.6584 9.11115C27.7199 8.70165 27.4372 8.3199 27.0277 8.2584C26.6182 8.1969 26.2364 8.47965 26.1749 8.88915Z" fill="#F48132"/>
<path fill-rule="evenodd" clip-rule="evenodd" d="M29.1809 9.89736C29.5837 11.9089 30.7866 14.1244 32.4966 15.7339C34.2599 17.3936 36.5504 18.4054 39.0397 17.9899C39.4484 17.9224 39.7244 17.5354 39.6561 17.1274C39.5886 16.7186 39.2016 16.4426 38.7936 16.5109C36.7829 16.8454 34.9484 15.9821 33.5242 14.6419C32.0467 13.2514 30.9996 11.3419 30.6524 9.60336C30.5706 9.19761 30.1754 8.93361 29.7697 9.01461C29.3639 9.09636 29.0999 9.49161 29.1809 9.89736Z" fill="#F48132"/>
<path fill-rule="evenodd" clip-rule="evenodd" d="M24.6667 4.5C35.4292 4.5 44.1667 13.2375 44.1667 24C44.1667 34.7625 35.4292 43.5 24.6667 43.5C13.9042 43.5 5.16666 34.7625 5.16666 24C5.16666 13.2375 13.9042 4.5 24.6667 4.5ZM24.6667 9C32.9452 9 39.6667 15.7215 39.6667 24C39.6667 32.2785 32.9452 39 24.6667 39C16.3882 39 9.66666 32.2785 9.66666 24C9.66666 15.7215 16.3882 9 24.6667 9Z" fill="#F6DDA9"/>
</svg>
