<svg width="145" height="89" viewBox="0 0 145 89" fill="none" xmlns="http://www.w3.org/2000/svg">
<path d="M63.4007 18V5.3502H67.6463C68.5685 5.3502 69.3225 5.4923 69.9083 5.7765C70.4941 6.0607 70.9262 6.4406 71.2046 6.9162C71.4888 7.386 71.6309 7.9138 71.6309 8.4996C71.6309 9.2594 71.4163 9.8742 70.9871 10.344C70.5637 10.808 69.9808 11.069 69.2384 11.127C69.83 11.1676 70.3317 11.2981 70.7435 11.5185C71.1611 11.7331 71.4772 12.0463 71.6918 12.4581C71.9122 12.8699 72.0224 13.3919 72.0224 14.0241C72.0224 14.9289 71.8368 15.6771 71.4656 16.2687C71.1002 16.8545 70.5956 17.2895 69.9518 17.5737C69.308 17.8579 68.5714 18 67.742 18H63.4007ZM65.4017 16.1121H67.3331C68.1915 16.1121 68.8266 15.9787 69.2384 15.7119C69.656 15.4451 69.8648 14.9144 69.8648 14.1198C69.8648 13.5224 69.7517 13.0961 69.5255 12.8409C69.2993 12.5799 68.9948 12.4175 68.612 12.3537C68.2292 12.2841 67.8029 12.2493 67.3331 12.2493H65.4017V16.1121ZM65.4017 10.5789H67.2722C67.8348 10.5789 68.2756 10.5093 68.5946 10.3701C68.9136 10.2251 69.1369 10.0134 69.2645 9.735C69.3979 9.4566 69.4646 9.1115 69.4646 8.6997C69.4704 8.1487 69.2674 7.7659 68.8556 7.5513C68.4496 7.3309 67.9189 7.2207 67.2635 7.2207H65.4017V10.5789ZM74.2417 18V5.3502H81.9412V7.2642H75.4162L76.2775 6.3246V11.1009L75.4162 10.5006H81.4627V12.3885H75.7729L76.2775 11.7273V17.0169L75.4162 16.0686H82.0369V18H74.2417Z" fill="#FF6433"/>
<g clip-path="url(#clip0_608_1961)">
<path d="M30.459 54.6796C24.5839 67.8804 18.7902 79 10.0867 79C-1.80721 79 -1.25795 66.2741 2.04491 66.2741C3.18447 66.2741 4.55829 67.0158 4.67939 69.2409C4.80843 71.6146 5.33983 74.0808 6.95255 74.0808C12.3003 74.0808 17.2774 62.3522 21.9468 50.6468C18.1152 56.3479 13.8527 61.7254 11.4049 61.7254C7.46607 61.7254 3.76483 58.0004 3.55373 54.1122C3.13285 46.3636 12.9435 27 18.9953 27C20.3096 27 23.0096 28.7522 23.136 31.0678C23.3126 34.3147 12.5716 50.0887 12.8601 55.3962C13.0375 58.6609 24.6335 41.4649 27.4956 37.1673C30.1056 31.4251 32.6177 27.3507 35.0444 27.3507C36.7418 27.3507 38.872 30.3189 38.9977 32.6265C39.1083 34.6647 35.135 44.1735 30.459 54.6802V54.6796Z" fill="#111113"/>
<path d="M117.246 32.0008C113.949 32.0008 107.893 37.9737 102.7 43.8907C105.398 37.8387 107.583 32.0513 107.583 30.6791C107.583 27.9247 105.191 26 102.828 26C99.119 26 91.4661 34.4374 85.5417 41.7326C86.9994 38.338 88.1351 35.5982 88.1351 34.5883C88.1351 32.2574 85.5581 30.4936 84.2588 30.4936C80.5737 30.4936 75.8977 36.8175 72.8462 43.3242C68.5916 49.1229 63.0888 56.1589 63.0142 53.8625C62.8414 48.5199 73.0065 34.573 72.9005 31.3047C72.8252 28.9738 70.1913 27.21 68.8914 27.21C65.6985 27.21 61.5579 32.2062 58.4258 38.0521C54.7185 43.2976 45.2793 56.3443 45.1818 53.332C45.0089 47.9894 55.1741 34.0425 55.068 30.7742C54.9928 28.4433 52.3589 26.6795 51.0596 26.6795C45.0737 26.6795 35.753 44.2397 36.005 52.0395C36.1313 55.9534 39.713 59.7031 43.6089 59.7031C46.0975 59.7031 50.4162 54.4363 54.2184 48.9893C53.9415 50.313 53.8034 51.529 53.8368 52.5701C53.9631 56.484 57.5448 60.2336 61.4407 60.2336C63.4449 60.2336 66.6365 56.817 69.7888 52.6419C69.7102 53.2117 69.6683 53.7455 69.6683 54.2322C69.6683 58.146 73.4955 60.7362 76.0489 60.7362C77.7101 60.7362 79.5258 56.3237 81.5772 51.2152C83.531 48.6801 86.0975 45.4245 88.6901 42.3503C93.4814 36.6699 98.2949 32.0114 98.2949 32.768C98.2949 33.7586 88.1351 46.0088 88.1351 54.4037C88.1351 57.4899 91.218 59.727 93.3518 59.727C94.1288 59.727 95.4876 57.918 97.067 55.2002C104.306 46.4277 112.849 37.0183 112.849 38.4085C112.849 39.3991 103.953 49.2812 103.953 57.6767C103.953 60.7628 107.036 63 109.17 63C112.113 63 122 39.7973 122 36.6779C122 33.9235 119.608 31.9988 117.245 31.9988L117.246 32.0008Z" fill="#111113"/>
<path d="M139.561 24C133.474 24 119.285 49.7631 119.285 62.9777C119.285 65.0675 120.817 66.3859 122.135 66.3859C124.177 66.3859 127.908 56.1046 133.292 47.1913C142.089 32.6266 145 32.4835 145 29.3701C145 26.5698 141.124 24 139.561 24V24ZM116.772 70.0072C114.439 71.1573 113.566 73.7689 114.201 76.2705C114.794 78.6026 117.401 79.4389 119.922 78.7847C122.284 78.1715 123.794 74.7866 123.025 72.3221C122.31 70.0304 119.339 68.7418 116.772 70.0078L116.772 70.0072Z" fill="#111113"/>
<path d="M105.922 73.2222C105.822 73.379 103.4 77.1054 97.4211 80.9114C95.3799 82.2109 92.7546 83.6151 89.4889 84.8842C89.3855 84.9429 89.2761 84.9831 89.1654 85.0068C86.0549 86.1916 82.376 87.2492 78.0828 87.9799C77.9898 88.0089 77.8955 88.0241 77.8012 88.0287C74.7201 88.5394 71.3267 88.882 67.6026 88.9829C67.1841 88.9941 66.767 89 66.3531 89C65.1659 89 63.9996 88.9519 62.853 88.8669C62.7751 88.8656 62.724 88.8629 62.7037 88.861C62.6709 88.8583 62.6388 88.8537 62.6074 88.8484C53.4815 88.1223 45.7307 84.8908 40.5338 82.0712C33.9048 78.474 29.977 74.8438 29.8133 74.691C29.3274 74.2383 29.2855 73.4601 29.7196 72.9533C30.1538 72.4473 30.8997 72.4031 31.3856 72.8558C31.4242 72.8914 35.3009 76.4675 41.6876 79.923C46.69 82.6293 54.1579 85.7369 62.9217 86.4064C63.6093 86.4018 69.9031 86.0519 77.0671 75.5608C83.0099 66.8587 88.2755 63.6622 93.6374 65.5006C95.8337 66.2538 97.3477 68.2583 97.6876 70.8638C97.9928 73.2031 97.3491 76.3107 95.1311 79.4604C95.45 79.272 95.7578 79.0848 96.0505 78.8997C101.646 75.3717 103.937 71.8891 103.96 71.8542C104.325 71.2921 105.057 71.1412 105.597 71.5188C106.137 71.8964 106.283 72.6575 105.923 73.2215L105.922 73.2222ZM69.8173 86.4275C72.5546 86.2739 75.0921 85.9866 77.4371 85.5979C78.3892 85.1399 84.1048 82.1423 87.3129 74.8504C87.5846 74.233 88.286 73.9622 88.8779 74.2449C89.4706 74.5282 89.7306 75.2583 89.4588 75.8764C87.7968 79.6542 85.5559 82.3789 83.5095 84.2747C85.2913 83.7864 86.9272 83.2448 88.4215 82.6735C94.1036 78.6651 95.7303 74.1249 95.3478 71.1966C95.1291 69.5215 94.2372 68.2979 92.8994 67.8392C88.6638 66.3876 84.2436 69.2949 78.9897 76.9887C75.669 81.8511 72.4806 84.7274 69.8179 86.4275H69.8173ZM107.318 68.2583C104.553 66.4739 101.023 67.8854 100.874 67.9467C100.269 68.1944 99.9717 68.9054 100.207 69.5373C100.443 70.1693 101.127 70.4823 101.733 70.2391C101.759 70.2286 104.323 69.2211 106.076 70.3518C108.166 71.7 107.565 74.2587 107.54 74.3589C107.37 75.0145 107.742 75.6906 108.371 75.8685C108.474 75.8975 108.578 75.912 108.68 75.912C109.2 75.912 109.676 75.5509 109.818 75.0027C110.213 73.4831 110.198 70.1179 107.317 68.259L107.318 68.2583ZM33.2192 71.0694C33.8242 71.3231 34.5112 71.0173 34.7548 70.3874C34.9984 69.7568 34.705 69.0398 34.1006 68.7861C33.948 68.7222 30.3372 67.2515 27.4283 69.8787C24.0493 72.9309 25.1665 77.0882 25.2156 77.2635C25.3656 77.7992 25.8344 78.1452 26.3446 78.1452C26.452 78.1452 26.562 78.13 26.67 78.0977C27.2941 77.9126 27.6562 77.2332 27.4833 76.5815C27.4526 76.4662 26.7597 73.7388 28.9738 71.7389C30.7798 70.108 33.1262 71.0318 33.2192 71.0694V71.0694Z" fill="#FF6433"/>
</g>
<path d="M54 10C46.525 10 33.875 16 31 19" stroke="#FF6433" stroke-width="2.32" stroke-linecap="round"/>
<path d="M91 10C98.475 10 111.125 16 114 19" stroke="#FF6433" stroke-width="2.32" stroke-linecap="round"/>
<defs>
<clipPath id="clip0_608_1961">
<rect width="145" height="65" fill="white" transform="translate(0 24)"/>
</clipPath>
</defs>
</svg>
